<svg width="342" height="342" viewBox="0 0 342 342" fill="none" xmlns="http://www.w3.org/2000/svg">
<mask id="mask0_40_173" style="mask-type:alpha" maskUnits="userSpaceOnUse" x="0" y="0" width="342" height="342">
<circle cx="171" cy="171" r="171" fill="white"/>
</mask>
<g mask="url(#mask0_40_173)">
<circle cx="171" cy="171" r="171" fill="white"/>
<path d="M339.211 230.877V347.959H1.71265V218.844C1.71265 218.844 149.506 228.361 180.217 241.329C180.217 241.346 299.747 224.69 339.211 230.877Z" fill="#B88956"/>
<path d="M180.217 241.346C125.169 248.841 65.5821 257.628 1.71265 269.389V347.959H339.194V266.941C339.211 266.941 270.889 249.062 180.217 241.346Z" fill="#9A603A"/>
<path d="M104.57 277.547C97.8394 279.297 91.8229 282.713 86.2824 287.166L57.4408 287.438C57.4408 287.438 53.1919 280.266 43.3175 278.158C43.3175 278.158 50.7786 278.566 54.6876 280.487C58.5286 282.373 62.3866 286.622 62.5055 286.758C62.4036 286.588 57.7638 278.719 53.005 275.881C55.9452 277.292 61.9787 280.487 65.2758 284.175C65.1568 283.971 59.1064 273.774 52.0702 270.255C52.4271 270.357 62.5735 273.179 65.7177 278.362C65.0719 273.06 63.1174 267.706 60.0582 262.302C65.5647 267.026 68.6919 272.55 69.7966 278.736L72.0061 259.514C73.6886 266.38 73.8586 274.997 73.3997 284.362C75.0143 275.337 78.0225 267.213 82.7303 260.194C80.147 266.941 78.4984 273.468 78.4474 279.62C80.6398 274.453 84.4299 270.035 89.1716 266.092C85.5346 271.411 83.1892 276.901 82.2204 282.611C86.3334 277.071 92.2478 273.009 99.9468 270.408C94.2023 274.181 89.2736 278.107 86.1974 282.407C92.2478 279.416 98.3832 277.768 104.57 277.547Z" fill="#B78855"/>
<path d="M339.16 302.717V347.942H1.78067L1.76367 288.169C1.76367 288.169 54.433 287.727 82.4418 287.455C110.434 287.166 133.666 296.616 141.654 298.128C149.642 299.641 163.63 296.752 163.63 296.752C163.63 296.752 161.76 299.199 165.295 300.576C168.83 301.952 206.663 300.202 209.229 299.641C211.795 299.08 209.671 297.941 204.521 294.168C199.371 290.395 204.521 290.463 204.521 290.463C224.066 292.996 223.148 297.058 223.148 297.058L270.175 297.499C270.175 297.499 284.468 300.899 297.419 301.68C310.336 302.462 339.16 302.717 339.16 302.717Z" fill="#B78855"/>
<path d="M290.349 281.592C284.23 284.906 278.775 291.33 273.744 299.743L247.554 300.253C247.554 300.253 243.696 286.707 234.739 282.73C234.739 282.73 241.52 283.512 245.055 287.115C248.539 290.667 252.041 298.689 252.159 298.944C252.075 298.621 247.86 283.801 243.543 278.43C246.211 281.099 251.684 287.115 254.692 294.083C254.59 293.709 249.1 274.453 242.693 267.825C242.693 267.825 252.193 273.162 255.1 283.121C254.522 273.111 252.737 263.015 249.95 252.835C254.947 261.758 257.785 272.176 258.788 283.852L260.793 247.583C262.323 260.534 262.476 276.799 262.051 294.457C263.53 277.445 266.249 262.115 270.515 248.875C268.169 261.605 266.674 273.91 266.64 285.518C268.628 275.762 272.078 267.451 276.378 259.99C273.064 270.018 270.957 280.385 270.056 291.143C273.795 280.674 279.165 273.026 286.151 268.131C280.933 275.235 276.446 282.662 273.659 290.786C279.148 285.11 284.723 282.016 290.349 281.592Z" fill="#B78855"/>
<path d="M332.022 294.219C328.589 295.681 325.258 299.131 322.42 302.836L307.956 302.462C307.956 302.462 305.781 296.48 300.75 294.729C300.75 294.729 304.557 295.069 306.563 296.667C308.483 298.213 310.438 301.663 310.557 301.884C310.455 301.612 308.109 295.171 305.713 292.826C307.209 293.998 310.285 296.667 311.984 299.743C311.916 299.573 308.84 291.075 305.237 288.152C305.407 288.22 310.608 290.582 312.205 294.899C311.882 290.48 310.88 286.01 309.316 281.524C312.137 285.466 313.735 290.055 314.296 295.222L315.435 279.195C316.301 284.923 316.386 292.095 316.148 299.896C316.981 292.384 318.511 285.619 320.907 279.773C319.581 285.399 318.749 290.837 318.732 295.953C319.853 291.636 321.791 287.982 324.204 284.685C322.352 289.104 321.145 293.692 320.652 298.451C322.76 293.828 325.785 290.446 329.711 288.288C326.771 291.432 324.255 294.712 322.692 298.281C325.717 295.783 328.861 294.423 332.022 294.219Z" fill="#B78855"/>
<path d="M339.16 323.69V347.942L286.542 347.976C286.542 347.976 274.067 343.812 262.289 346.498C262.289 346.498 267.796 342.997 280.356 343.065C292.915 343.116 298.898 345.665 298.898 345.665C290.536 339.428 277.653 335.298 262.901 332.051C277.942 332.221 292.745 334.737 306.971 343.201C302.807 337.609 295.992 331.644 288.615 325.61C300.139 330.981 310.047 337.626 317.984 345.835C313.888 333.53 308.585 322.5 301.515 313.271C311.067 320.443 318.545 328.55 323.1 337.966C323.134 327.293 321.451 316.212 318.409 304.791C325.802 315.787 330.017 327.344 330.884 339.513C332.617 334.193 335.37 328.924 339.16 323.69Z" fill="#9A603A"/>
<path d="M80.2832 346.396C68.2673 343.557 55.5206 347.959 55.5206 347.959L1.78052 347.925V322.262C5.65551 327.786 8.47678 333.377 10.2443 339.003C11.1281 326.12 15.428 313.883 22.991 302.241C19.8808 314.325 18.1643 326.069 18.1983 337.354C22.8551 327.378 30.4861 318.795 40.2416 311.198C33.0354 320.953 27.6138 332.646 23.4159 345.665C31.5228 336.963 41.6182 329.927 53.3961 324.25C45.8501 330.658 38.8989 336.963 34.65 342.878C49.1812 333.921 64.3073 331.253 79.6713 331.066C64.6132 334.499 51.4417 338.867 42.9099 345.478C42.9099 345.478 49.0283 342.793 61.843 342.725C74.6576 342.657 80.2832 346.396 80.2832 346.396Z" fill="#9A603A"/>
<path d="M186.387 34.3566C186.387 34.3566 179.622 32.5381 179.537 27.4224C179.452 22.3068 186.098 19.9444 189.803 22.1028C193.525 24.2613 195.292 24.0913 198.98 23.7854C202.651 23.4965 205.456 27.7453 205.456 27.7453C205.456 27.7453 209.467 26.6406 211.863 29.241C214.259 31.8413 212.917 34.9005 212.917 34.9005C212.917 34.9005 207.495 42.2426 206.118 42.0556C204.742 41.8687 188.324 38.7415 188.324 38.7415L186.387 34.3566Z" fill="#23211F"/>
<path d="M176.784 74.2113L156.508 80.7716C156.508 80.7716 156.152 79.6669 155.914 79.6669C155.676 79.6669 151.155 80.8226 150.9 81.2135C150.645 81.5874 151.002 83.4739 151.002 83.4739C151.002 83.4739 153.704 102.22 154.775 102.628C155.846 103.036 159.602 101.047 159.568 100.826C159.534 100.605 169.102 99.1438 169.102 99.1438C169.102 99.1438 176.903 85.8873 176.784 74.2113Z" fill="#F5D1A9"/>
<path d="M238.461 149.247C234.892 132.523 229.097 115.018 222.247 97.8522L221.16 106.129C226.666 118.961 230.898 133.56 234.586 148.822L238.461 149.247Z" fill="#706E6D"/>
<path d="M215.16 72.8517L235.232 78.8171C235.232 78.8171 233.668 102.56 233.516 102.713C233.363 102.866 228.808 102.322 228.264 101.88C227.72 101.438 227.584 100.317 227.584 100.317C227.584 100.317 220.072 100.215 218.95 99.9256C217.829 99.6367 211.489 93.5013 211.489 89.6263C211.489 85.7513 211.183 72.4608 215.16 72.8517Z" fill="#F5D1A9"/>
<path d="M169.085 99.1608C169.085 99.1608 168.745 131.011 168.354 131.86C167.963 132.71 167.844 136.653 167.844 140.579C167.844 144.08 224.457 144.08 224.457 140.579C224.457 140.579 221.839 102.135 221.924 99.6027C222.009 97.0704 217.523 73.8034 217.421 73.5485C217.336 73.2935 210.52 71.7979 210.52 71.7979L193.984 75.401L192.675 76.0128L186.931 75.282L183.243 71.7979L176.784 74.2453L169.085 89.1674V99.1608Z" fill="#F5D1A9"/>
<path d="M226.802 296.48C221.941 297.754 211.336 296.871 210.707 296.752C210.096 296.65 203.977 295.715 203.127 294.644C202.278 293.573 202.38 289.342 202.397 288.033C202.414 286.707 203.892 286.367 203.892 286.367L197.791 176.508L194.239 175.539L195.207 285.925C197.145 285.857 197.451 293.539 195.887 294.355C194.307 295.188 185.35 295.8 182.478 295.647C179.588 295.477 171.736 295.035 170.496 294.219C169.255 293.404 169.425 288.798 169.459 287.489C169.493 286.18 170.938 285.993 170.938 285.993L167.844 140.562C187.321 143.859 206.289 144.284 224.457 140.562L226.717 169.217L229.012 286.537C231.119 286.639 230.626 290.565 230.626 290.565C230.626 290.565 231.646 295.205 226.802 296.48Z" fill="#633A1F"/>
<path d="M195.208 285.925L190.942 286.809L190.007 242.077C190.007 242.077 190.466 187.963 189.633 183.578C188.783 179.176 184.517 171.256 184.517 171.256L194.239 175.539L195.208 285.925Z" fill="#3B1F0C"/>
<path d="M196.108 148.482C185.996 148.482 176.631 147.445 167.827 145.372L168.048 144.471C184.534 148.363 203.093 148.567 224.797 145.117L224.933 146.035C214.667 147.666 205.082 148.482 196.108 148.482Z" fill="#3B1F0C"/>
<path d="M193.219 168.18L192.556 167.84C192.437 167.772 189.48 166.276 188.528 164.152C187.644 162.147 187.372 149.468 187.355 148.023L188.273 148.006C188.341 151.864 188.681 162.215 189.378 163.778C189.939 165.036 191.434 166.09 192.301 166.633V148.023H193.219V168.18Z" fill="#3B1F0C"/>
<path d="M192.675 173.296L192.301 167.449L193.219 167.398L193.593 173.228L192.675 173.296Z" fill="#3B1F0C"/>
<path d="M176.784 74.2113C176.784 74.2113 175.17 82.8281 174.456 90.9859C173.742 99.1438 173.776 119.369 174.099 126.609C174.422 133.832 175.017 140.494 175.017 140.494H179.215C179.215 140.494 177.583 105.959 178.178 94.793C178.773 83.6269 181.39 72.4607 181.39 72.4607L176.784 74.2113Z" fill="#633A1F"/>
<path d="M212.628 72.2398C212.628 72.2398 205.864 74.9591 204.215 91.1559C202.873 104.344 202.941 140.783 202.941 140.783H206.832C206.832 140.783 206.968 100.707 206.951 99.9256C206.816 94.453 206.85 76.1828 216.384 73.2085C216.112 72.4437 214.599 72.2398 212.628 72.2398Z" fill="#633A1F"/>
<path d="M175.017 140.494C175.017 140.494 175.17 147.037 177.413 146.714C179.657 146.392 179.555 143.179 179.555 143.179L179.215 140.477H175.017V140.494Z" fill="white"/>
<path d="M202.958 140.8C202.958 140.8 202.448 146.935 204.827 147.139C207.206 147.36 206.85 140.8 206.85 140.8H202.958Z" fill="white"/>
<path d="M170.921 285.993C177.617 286.316 184.229 286.724 190.942 286.792C184.297 287.897 177.464 287.455 170.921 285.993Z" fill="#3B1F0C"/>
<path d="M203.909 286.367C212.203 287.931 220.82 289.121 229.029 286.537C221.228 290.259 211.829 289.07 203.909 286.367Z" fill="#3B1F0C"/>
<path d="M172.824 48.514C168.456 51.5562 163.137 52.355 163.137 52.355L146.872 84.8505L147.127 84.7826L151.036 83.7628L153.67 99.1778C153.67 99.1778 140.499 102.577 138.034 102.815C135.57 103.036 129.01 103.937 125.984 98.1411C122.959 92.3456 129.435 84.8505 129.435 84.8505C129.435 84.8505 155.013 48.9728 155.744 47.9191C156.458 46.8994 155.387 41.3758 155.336 41.1039C156.254 44.418 160.248 45.4548 162.372 45.8117C164.497 46.1686 171.482 44.8429 171.482 44.8429C171.482 44.8429 174.626 42.6165 175.867 43.3133C177.039 44.0271 177.175 45.4718 172.824 48.514Z" fill="#F3BC80"/>
<path d="M153.653 99.1779C153.653 99.1779 140.482 102.577 138.017 102.815C143.626 99.4838 147.076 84.9695 147.11 84.7826L151.019 83.7628L153.653 99.1779Z" fill="#D79B59"/>
<path d="M253.774 100.86C253.061 101.234 252.33 101.54 251.65 101.778C249.22 102.645 233.822 99.3648 233.822 99.3648L234.671 87.1959C234.671 87.2129 244.988 103.631 253.774 100.86Z" fill="#AE4A08"/>
<path d="M207.036 51.0973C207.172 53.3407 203.926 54.0375 203.926 54.0375L203.688 69.5885L192.675 76.0978C189.344 74.2453 187.746 70.2003 187.746 70.2003L187.814 63.2831C187.814 63.2831 182.852 63.5721 181.254 58.4224C180.217 55.1253 181.764 39.9142 181.764 39.9142C183.854 34.3396 194.12 37.3139 194.12 37.3139C194.12 37.3139 204.028 38.1127 205.337 39.6593C206 40.4411 206.391 42.8034 206.628 45.2338C206.866 47.5792 206.968 49.9926 207.036 51.0973Z" fill="#F3BC80"/>
<path d="M187.814 63.3001C187.814 63.3001 195.258 63.4531 198.335 61.9405C198.335 61.9405 194.63 67.668 187.78 67.8039L187.814 63.3001Z" fill="#D79B59"/>
<path d="M186.811 50.8594C185.945 50.8594 183.786 50.7234 183.242 49.3637C182.681 47.9191 184.534 42.9054 184.925 41.9027C185.01 41.6647 185.265 41.5628 185.52 41.6308C185.758 41.7327 185.877 41.9877 185.792 42.2256C184.908 44.554 183.786 48.191 184.109 49.0238C184.449 49.8736 186.438 49.9926 187.083 49.9416C187.355 49.9246 187.559 50.1116 187.576 50.3835C187.593 50.6384 187.389 50.8594 187.151 50.8594C187.083 50.8424 186.981 50.8594 186.811 50.8594Z" fill="#D79B59"/>
<path d="M187.593 54.8023C185.741 54.8023 184.313 53.8506 184.279 53.8506C184.075 53.7146 184.024 53.4257 184.16 53.2047C184.279 52.9838 184.585 52.9328 184.806 53.0858C184.942 53.1877 188.256 55.3292 191.061 52.219C191.231 52.032 191.536 52.015 191.706 52.185C191.893 52.355 191.91 52.6439 191.74 52.8308C190.364 54.3604 188.885 54.8023 187.593 54.8023Z" fill="#D79B59"/>
<path d="M163.647 29.4619C163.647 29.4619 166.366 27.6774 168.167 27.8133C169.969 27.9493 169.85 28.4932 169.85 28.4932C169.85 28.4932 170.904 28.0003 172.297 28.0343C173.691 28.0683 173.419 29.4959 173.419 29.4959C173.419 29.4959 174.847 28.3572 176.002 28.8331C177.175 29.3089 176.988 30.1247 176.988 30.1247C176.988 30.1247 177.498 29.3939 178.688 29.8698C179.877 30.3457 178.977 31.9433 178.977 31.9433L163.647 29.4619Z" fill="#F3BC80"/>
<path d="M218.083 153.479C218.083 153.479 220.718 150.929 229.165 149.145C237.611 147.377 240.603 150.114 241.011 150.861C241.418 151.626 245.259 162.299 245.055 164.067C244.852 165.835 238.376 167.058 237.102 167.364C235.827 167.67 231.17 168.435 230.065 166.293C229.454 165.104 227.227 157.473 227.227 157.473C227.227 157.473 226.972 153.156 224.134 153.054C221.313 152.969 218.083 153.479 218.083 153.479Z" fill="#AE4A08"/>
<path d="M245.056 164.084C245.039 164.254 244.971 164.407 244.835 164.56C244.937 164.407 245.022 164.237 245.056 164.084Z" fill="#AE4A08"/>
<path d="M244.852 175.862C244.733 176.899 244.427 177.748 243.849 178.428C243.356 179.006 242.659 179.448 241.742 179.754C241.13 179.958 228.451 182.643 226.174 181.98C223.896 181.301 222.791 178.309 222.791 178.309L217.251 158.17C217.251 158.17 216.146 154.363 218.101 153.496C220.055 152.612 225.8 151.133 227.907 152.816C230.015 154.498 236.745 161.484 236.745 161.484L238.495 162.775L243.152 166.208C243.135 166.191 245.073 173.907 244.852 175.862Z" fill="#706E6D"/>
<path d="M244.851 175.862C244.733 176.899 244.427 177.748 243.849 178.428C240.45 178.955 234.773 179.533 233.006 177.969C230.422 175.692 228.417 167.075 228.417 167.075L227.533 163.574C227.533 163.574 234.331 163.404 238.478 162.775L243.135 166.208C243.135 166.191 245.072 173.907 244.851 175.862Z" fill="#979592"/>
<path d="M244.852 164.56C243.033 167.687 233.006 170.355 229.811 168.435C226.446 166.429 226.378 158.288 225.715 156.249C225.052 154.21 221.772 154.94 221.772 154.94L218.101 153.462C218.271 153.428 221.415 152.952 224.151 153.054C226.99 153.156 227.244 157.473 227.244 157.473C227.244 157.473 229.471 165.121 230.083 166.293C231.187 168.435 235.861 167.653 237.119 167.347C238.258 167.092 243.696 166.072 244.852 164.56Z" fill="#706E6D"/>
<path d="M245.055 164.084C245.005 164.254 244.937 164.407 244.835 164.56C243.679 166.073 238.24 167.092 237.102 167.364C235.827 167.67 231.17 168.435 230.065 166.31C229.454 165.121 227.227 157.49 227.227 157.49C227.227 157.49 226.972 153.173 224.134 153.071C221.381 152.969 218.253 153.445 218.083 153.479C218.168 153.394 220.837 150.895 229.165 149.145C237.611 147.377 240.603 150.114 241.011 150.861C241.418 151.626 245.259 162.299 245.055 164.084Z" fill="#979592"/>
<path d="M218.084 158.153L211.234 137.996C211.234 137.996 205.694 118.808 205.49 107.472C204.912 75.5709 214.328 72.6307 214.328 72.6307L217.438 73.5145C217.438 73.5145 205.354 81.2985 209.042 107.472C212.73 133.645 221.755 154.94 221.755 154.94C221.755 154.94 223.012 157.949 223.029 158.407C223.046 158.866 221.653 159.954 220.327 159.971C218.984 160.005 218.848 159.631 218.084 158.153Z" fill="#706E6D"/>
<path d="M187.576 69.8265C187.576 69.8265 189.48 74.4832 192.675 75.9789C192.675 75.9789 188.97 79.9898 188.137 80.1258C187.305 80.2617 183.226 72.1209 183.243 71.764C183.26 71.424 187.407 69.4695 187.576 69.8265Z" fill="#633A1F"/>
<path d="M193.984 75.367C193.984 75.367 196.278 80.0918 196.55 80.5506C196.805 81.0095 210.538 71.9679 210.538 71.7809C210.538 71.594 204.402 69.3675 204.181 69.3675C203.96 69.3675 193.984 75.367 193.984 75.367Z" fill="#633A1F"/>
<path d="M180.557 37.7897C180.557 41.3248 177.838 44.1971 174.49 44.1971C171.142 44.1971 168.423 41.3248 168.423 37.7897C168.423 34.2547 171.142 31.3824 174.49 31.3824C177.838 31.3994 180.557 34.2547 180.557 37.7897Z" fill="#414040"/>
<path d="M186.846 37.7897C186.846 40.3901 185.112 42.5485 182.784 43.0584V43.0754L182.648 43.0924H182.631C182.478 43.1264 182.325 43.1433 182.155 43.1603L175.798 44.0441C178.501 43.3983 180.523 40.8489 180.523 37.8067C180.523 34.6116 178.297 31.9602 175.391 31.4844L182.053 32.4361C182.291 32.4531 182.529 32.4871 182.767 32.5381C185.095 33.031 186.846 35.1894 186.846 37.7897Z" fill="#706E6D"/>
<path d="M176.461 43.9591C176.461 43.9591 176.087 45.2508 171.533 46.2365C166.978 47.2223 162.559 47.6982 159.33 46.7974C156.118 45.8796 155.761 44.0611 155.761 44.0611L155.302 41.1379C155.302 41.1379 157.8 44.7069 162.542 44.9789C167.284 45.2508 175.9 43.6532 175.9 43.6532L176.461 43.9591Z" fill="#D79B59"/>
<path d="M178.807 37.7897C178.807 41.2059 176.512 44.0611 173.47 44.724V44.7409L173.3 44.7579H173.283C173.079 44.7919 172.875 44.8259 172.671 44.8429L164.31 45.9986C167.879 45.1488 170.53 41.8007 170.53 37.7728C170.53 33.5578 167.59 30.0567 163.766 29.4449L172.535 30.7026C172.858 30.7196 173.164 30.7706 173.47 30.8385C176.512 31.5184 178.807 34.3736 178.807 37.7897Z" fill="#706E6D"/>
<path d="M170.53 37.7897C170.53 42.4465 166.961 46.2195 162.542 46.2195C158.14 46.2195 154.554 42.4465 154.554 37.7897C154.554 33.1329 158.123 29.3599 162.542 29.3599C166.944 29.3599 170.53 33.1329 170.53 37.7897Z" fill="#414040"/>
<path d="M168.083 37.7897C168.083 41.0189 165.601 43.6362 162.542 43.6362C159.483 43.6362 157.002 41.0189 157.002 37.7897C157.002 34.5606 159.483 31.9433 162.542 31.9433C165.601 31.9433 168.083 34.5606 168.083 37.7897Z" fill="#CE9C65"/>
<path d="M159.84 34.0507C159.84 34.0507 158.191 35.4443 158.259 37.2289C158.344 39.0134 158.99 39.2343 159.194 39.0134C159.398 38.7925 158.803 36.3621 160.418 35.4953C162.049 34.6285 162.899 34.0337 162.576 33.5408C162.27 33.048 160.911 33.2689 159.84 34.0507Z" fill="white"/>
<path d="M200.476 37.7897C200.476 41.3248 197.757 44.1971 194.409 44.1971C191.06 44.1971 188.341 41.3248 188.341 37.7897C188.341 34.2547 191.06 31.3824 194.409 31.3824C197.757 31.3994 200.476 34.2547 200.476 37.7897Z" fill="#414040"/>
<path d="M206.781 37.7897C206.781 40.3901 205.048 42.5485 202.719 43.0584V43.0754L202.583 43.0924H202.566C202.413 43.1264 202.26 43.1433 202.091 43.1603L195.734 44.0441C198.436 43.3983 200.459 40.8489 200.459 37.8067C200.459 34.6116 198.233 31.9602 195.326 31.4844L201.989 32.4361C202.227 32.4531 202.464 32.4871 202.702 32.5381C205.031 33.031 206.781 35.1894 206.781 37.7897Z" fill="#706E6D"/>
<path d="M198.743 37.7897C198.743 41.2059 196.448 44.0611 193.406 44.724V44.7409L193.236 44.7579H193.219C193.015 44.7919 192.811 44.8259 192.607 44.8429L184.245 45.9986C187.814 45.1488 190.466 41.8007 190.466 37.7728C190.466 33.5578 187.526 30.0567 183.702 29.4449L192.471 30.7026C192.794 30.7196 193.1 30.7706 193.406 30.8385C196.448 31.5184 198.743 34.3736 198.743 37.7897Z" fill="#706E6D"/>
<path d="M190.448 37.7897C190.448 42.4465 186.879 46.2195 182.46 46.2195C178.059 46.2195 174.473 42.4465 174.473 37.7897C174.473 33.1329 178.042 29.3599 182.46 29.3599C186.879 29.3599 190.448 33.1329 190.448 37.7897Z" fill="#414040"/>
<path d="M188.001 37.7897C188.001 41.0189 185.52 43.6362 182.461 43.6362C179.402 43.6362 176.92 41.0189 176.92 37.7897C176.92 34.5606 179.402 31.9433 182.461 31.9433C185.52 31.9433 188.001 34.5606 188.001 37.7897Z" fill="#CE9C65"/>
<path d="M179.776 34.0507C179.776 34.0507 178.127 35.4443 178.195 37.2289C178.263 39.0134 178.926 39.2343 179.13 39.0134C179.334 38.7925 178.739 36.3621 180.353 35.4953C181.985 34.6285 182.835 34.0337 182.512 33.5408C182.189 33.048 180.846 33.2689 179.776 34.0507Z" fill="white"/>
<path d="M207.037 51.0973C207.173 53.3407 203.927 54.0375 203.927 54.0375C203.927 54.0375 203.247 49.9416 203.4 47.1543C203.553 44.367 204.334 42.3786 204.334 42.3786L206.646 45.2338C206.867 47.5792 206.969 49.9926 207.037 51.0973Z" fill="#D79B59"/>
<path d="M257.496 95.1669C257.343 98.2261 255.644 99.8577 253.774 100.86C253.061 101.251 252.33 101.54 251.65 101.778C251.548 101.812 251.429 101.846 251.276 101.88C247.945 102.373 233.822 99.3648 233.822 99.3648L234.671 87.1959L211.404 57.1647C211.404 57.1647 208.634 55.4142 206.221 51.8791C203.807 48.344 204.657 41.0869 203.926 37.4668C203.195 33.8468 197.026 30.2097 197.026 30.2097C196.601 29.9548 196.856 29.105 197.978 28.901C199.083 28.6971 201.258 30.0058 201.258 30.0058C202.193 29.105 204.589 30.1927 204.589 30.1927C206.799 29.9548 208.923 31.8073 208.923 31.8073C210.64 31.9602 212.764 33.7278 213.937 37.0079C215.109 40.2711 216.69 48.446 216.69 48.446C216.69 48.446 247.826 80.6866 251.82 83.8308C255.797 87.009 257.717 90.935 257.496 95.1669Z" fill="#F3BC80"/>
<path d="M207.87 37.1779C207.751 37.1779 207.632 37.1099 207.547 36.991C204.895 32.5891 201.105 30.3457 201.071 30.3287C200.901 30.2267 200.833 30.0058 200.952 29.8188C201.037 29.6319 201.258 29.5809 201.462 29.6829C201.632 29.7848 205.439 32.0452 208.192 36.6001C208.294 36.77 208.243 37.008 208.073 37.1099C208.006 37.1609 207.938 37.1779 207.87 37.1779Z" fill="#D79B59"/>
<path d="M209.484 36.2601C209.331 36.2601 209.195 36.1582 209.127 36.0052C208.26 33.3539 204.402 30.5326 204.368 30.4986C204.198 30.3797 204.164 30.1417 204.283 29.9887C204.402 29.8188 204.623 29.7678 204.793 29.9038C204.963 30.0227 208.889 32.895 209.824 35.7673C209.892 35.9542 209.773 36.1751 209.586 36.2431C209.569 36.2601 209.518 36.2601 209.484 36.2601Z" fill="#D79B59"/>
<path d="M212.05 36.5491C211.914 36.5491 211.762 36.4641 211.711 36.3111C210.929 34.3226 208.668 32.0962 208.634 32.0792C208.498 31.9433 208.498 31.7053 208.634 31.5523C208.753 31.3994 208.991 31.3994 209.161 31.5354C209.246 31.6373 211.558 33.8977 212.39 36.0392C212.458 36.2261 212.373 36.4471 212.186 36.5151C212.152 36.5491 212.101 36.5491 212.05 36.5491Z" fill="#D79B59"/>
<path d="M175.951 295.188C175.951 295.188 174.983 299.046 173.708 300.185C172.416 301.323 176.342 305.64 177.515 305.912C178.688 306.184 186.863 303.074 186.863 303.074L191.519 298.672L191.451 295.205C186.642 295.868 181.492 295.919 175.951 295.188Z" fill="#F3BC80"/>
<path d="M193.066 311.028C192.267 311.997 177.634 316.518 170.53 318.506C163.426 320.495 156.661 320.834 155.149 316.314C154.809 315.311 154.758 314.427 154.911 313.628C155.421 310.824 158.446 309.209 160.417 308.173C162.95 306.847 167.505 304.009 170.105 302.037C172.705 300.066 173.759 299.437 176.019 300.1C178.297 300.763 178.076 303.737 178.076 303.737C184.636 302.938 191.536 298.689 191.536 298.689C191.536 298.689 192.675 304.247 193.1 307.935C193.253 309.498 193.304 310.739 193.066 311.028Z" fill="#675549"/>
<path d="M193.066 311.028C192.267 311.997 177.634 316.517 170.53 318.506C163.426 320.494 156.661 320.834 155.149 316.313C154.809 315.311 154.758 314.427 154.911 313.628C156.525 315.362 160.129 318.081 166.349 316.976C174.235 315.583 189.65 309.345 193.1 307.918C193.253 309.498 193.304 310.739 193.066 311.028Z" fill="#23211F"/>
<path d="M226.258 313.662C225.681 317.282 223.063 326.188 217.693 327.905C212.339 329.621 207.988 328.159 206.595 323.282C206.238 322.041 206.119 320.732 206.153 319.458C206.238 315.719 207.597 312.201 208.107 310.858C208.804 309.056 210.47 304.264 210.47 304.264C210.47 304.264 214.888 300.984 214.973 300.95C215.075 300.916 225.154 300.729 225.154 300.729C225.154 300.729 226.326 307.204 226.377 311.453C226.377 312.303 226.343 313.067 226.258 313.662Z" fill="#675549"/>
<path d="M226.258 313.662C225.681 317.282 223.063 326.188 217.693 327.905C212.339 329.621 207.988 328.159 206.595 323.282C206.238 322.041 206.119 320.732 206.153 319.458C206.697 322.313 208.362 326.239 213.546 325.916C221.602 325.406 224.27 318.438 226.377 311.47C226.377 312.303 226.343 313.067 226.258 313.662Z" fill="#23211F"/>
<path d="M210.266 296.684L210.283 305.929C210.283 305.929 214.413 303.397 217.149 303.873C219.902 304.366 222.842 306.762 222.842 306.762C222.842 306.762 225.018 302.394 225.154 300.712C225.273 299.046 224.916 296.82 224.916 296.82L210.266 296.684Z" fill="#F3BC80"/>
<path d="M251.276 101.88C247.945 102.373 233.822 99.3648 233.822 99.3648L234.671 87.1959C234.688 87.2129 246.602 100.164 251.276 101.88Z" fill="#D79B59"/>
<path d="M190.568 146.46C191.244 146.46 191.791 145.912 191.791 145.236C191.791 144.56 191.244 144.012 190.568 144.012C189.892 144.012 189.344 144.56 189.344 145.236C189.344 145.912 189.892 146.46 190.568 146.46Z" fill="#3B1F0C"/>
<path d="M30.5372 65.4076H116.671C116.671 65.4076 117.147 50.7234 107.102 49.9586C97.058 49.1938 91.6874 57.8275 89.8519 56.9098C88.0163 55.992 88.8151 39.3873 73.961 39.6593C59.0898 39.9312 58.9369 56.4339 58.9369 56.4339C58.9369 56.4339 32.6617 47.4262 30.5372 65.4076Z" fill="#FFF2E1"/>
<path d="M263.241 178.411H339.194C339.194 178.411 339.602 165.461 330.764 164.798C321.91 164.135 317.168 171.732 315.553 170.916C313.922 170.1 314.635 155.45 301.532 155.705C288.411 155.943 288.275 170.491 288.275 170.491C288.275 170.491 265.11 162.554 263.241 178.411Z" fill="#FFF2E1"/>
<path d="M90.7186 30.0228C96.905 25.6039 102.174 31.5354 102.174 31.5354C104.604 26.5387 113.187 28.0003 113.187 28.0003C103.856 28.1023 102.276 33.8468 102.276 33.8468C99.4374 30.0398 95.7663 28.2892 90.7186 30.0228Z" fill="#2E221A"/>
<path d="M161.743 100.351L159.551 100.826L156.509 80.7716L158.208 80.2277L161.743 100.351Z" fill="#D7B085"/>
<path d="M229.811 80.9076L227.584 100.317L225.188 100.266L227.176 77.5254L229.811 80.9076Z" fill="#D7B085"/>
</g>
</svg>
