<svg width="284" height="468" viewBox="0 0 284 468" fill="none" xmlns="http://www.w3.org/2000/svg">
<path d="M201.43 216.547L210.054 216.424C212.106 216.4 213.889 217.89 214.158 219.942C214.158 219.967 214.158 220.016 214.158 220.04C214.525 223.143 213.621 223.851 213.621 223.851L201.406 224.34V216.547H201.43Z" fill="#414040"/>
<path d="M62.2777 99.5274C62.2777 99.5274 54.5579 102.41 49.11 103.729C43.6621 105.049 40.1442 105.733 38.0188 110.619C35.8934 115.505 34.0856 206.188 36.8462 217.768L109.11 220.138L109.379 165.952C109.379 165.952 114.826 128.477 111.357 116.775C110.991 115.578 110.234 114.527 109.208 113.843L95.2092 104.487C95.2092 104.487 92.6929 106.123 91.96 106.075C91.2271 106.026 84.4112 96.8401 84.2402 96.8401C84.0692 96.8401 62.2777 99.5274 62.2777 99.5274Z" fill="#EAD3B6"/>
<path d="M75.5188 67.9151C75.4943 69.4786 75.4455 71.0177 75.3477 72.5324C74.8347 72.3369 73.4178 70.3581 71.7321 67.4998C74.0041 68.1594 75.5188 67.9151 75.5188 67.9151Z" fill="#414040"/>
<path d="M103.149 35.8387L103.027 36.0097C102.196 34.7149 101.317 33.64 100.413 32.9559C100.413 32.9559 96.2109 36.6693 88.32 37.622C80.4292 38.5748 75.6898 41.824 75.8119 45.0487C75.9341 48.2735 77.2288 60.5129 77.5709 61.7344C77.9129 62.9559 75.0057 60.3907 74.7859 59.3891C74.566 58.3875 72.3429 54.5764 68.3608 56.7507C67.7256 57.0927 67.237 57.5568 66.9194 58.0699C65.4048 54.6008 64.2077 51.1318 63.8901 48.4201C62.8641 39.9185 70.6328 36.8159 70.6328 36.8159C70.4129 24.6009 89.8347 24.5276 89.8347 24.5276C93.6702 19.1042 104.786 17.5407 107.229 24.0879C109.647 30.6107 103.149 35.8387 103.149 35.8387Z" fill="#23211F"/>
<path d="M106.813 77.2718C102.514 86.2375 94.354 84.0388 94.354 84.0388L93.6211 88.5828L92.1798 97.5974L88.7351 104.78L86.9518 111.962L84.8264 104.218L76.8866 98.086L70.7547 93.3711C73.613 86.6528 75.1033 79.0796 75.4453 70.8223C75.4941 69.8695 75.5186 68.9167 75.5186 67.964C75.5186 67.964 74.6635 68.1105 73.2466 67.8907C72.1473 67.7197 70.7059 67.3288 69.0691 66.4493C69.0447 66.4249 69.0202 66.4249 68.9958 66.4005C66.6994 65.0324 64.3785 58.9493 68.3118 56.7995C72.2938 54.6252 74.517 58.4363 74.7368 59.4379C74.9567 60.4396 77.8639 63.0047 77.5218 61.7832C77.1798 60.5617 75.885 48.3223 75.7629 45.0976C75.6407 41.8728 80.4045 38.6237 88.271 37.6709C96.1618 36.7181 100.364 33.0048 100.364 33.0048C104.053 35.7654 107.302 44.9999 108.084 49.7148C108.939 54.3565 111.113 68.306 106.813 77.2718Z" fill="#F9C78F"/>
<path d="M92.3264 61.0747C88.6131 61.0747 85.2173 57.9233 84.4844 53.5748C84.0936 51.2784 84.4844 48.9819 85.6082 47.1253C86.732 45.2197 88.4665 43.9983 90.4942 43.6562C92.4975 43.3142 94.5496 43.9005 96.2597 45.3419C97.9209 46.7344 99.0691 48.7621 99.46 51.0829C99.8508 53.3793 99.46 55.6757 98.3362 57.5324C97.2124 59.4379 95.4779 60.6594 93.4502 61.0015C93.0593 61.0259 92.6929 61.0747 92.3264 61.0747ZM91.5935 44.8044C91.3004 44.8044 90.9828 44.8289 90.6896 44.8777C89.0528 45.1465 87.6359 46.1725 86.6831 47.7605C85.7304 49.3728 85.3884 51.3517 85.7304 53.3549C86.4144 57.4347 89.7857 60.293 93.2059 59.7067C94.8427 59.4379 96.2597 58.4119 97.2124 56.8239C98.1652 55.2116 98.5072 53.2327 98.1652 51.2295C97.8232 49.2262 96.846 47.4673 95.4046 46.2702C94.2808 45.3175 92.9372 44.8044 91.5935 44.8044Z" fill="#23211F"/>
<path d="M109.378 59.1692C107.742 59.1692 106.129 58.5585 104.737 57.4103C103.075 56.0177 101.927 53.9901 101.536 51.6692C101.146 49.3728 101.536 47.0764 102.66 45.2197C103.784 43.3142 105.518 42.0927 107.546 41.7507C111.675 41.0422 115.681 44.3647 116.487 49.1529C116.878 51.4494 116.487 53.7458 115.364 55.6024C114.24 57.508 112.505 58.7295 110.478 59.0715C110.111 59.1448 109.745 59.1692 109.378 59.1692ZM108.645 42.8989C108.352 42.8989 108.059 42.9233 107.742 42.9722C106.105 43.2409 104.688 44.267 103.735 45.8549C102.782 47.4673 102.44 49.4461 102.782 51.4494C103.124 53.4526 104.102 55.2116 105.543 56.4086C106.935 57.5813 108.621 58.0699 110.258 57.8011C111.895 57.5324 113.312 56.5063 114.264 54.9184C115.217 53.306 115.559 51.3272 115.217 49.324C114.606 45.6106 111.748 42.8989 108.645 42.8989Z" fill="#23211F"/>
<path d="M107.09 52.7768C107.58 52.6775 107.83 51.8788 107.651 50.9929C107.471 50.107 106.928 49.4693 106.439 49.5687C105.95 49.6681 105.699 50.4668 105.879 51.3527C106.059 52.2386 106.601 52.8762 107.09 52.7768Z" fill="#23211F"/>
<path d="M94.3421 54.0956C94.8313 53.9963 95.0821 53.1976 94.9022 52.3117C94.7222 51.4258 94.1798 50.7882 93.6906 50.8875C93.2014 50.9869 92.9506 51.7856 93.1305 52.6715C93.3104 53.5574 93.8529 54.195 94.3421 54.0956Z" fill="#23211F"/>
<path d="M74.3461 55.1383C74.053 55.1383 73.7842 54.9428 73.7109 54.6252C73.6376 54.2832 73.8575 53.9412 74.1995 53.8679L84.851 51.6692C85.193 51.5959 85.535 51.8158 85.6083 52.1578C85.6816 52.4998 85.4617 52.8419 85.1197 52.9151L74.4683 55.1138C74.4438 55.1383 74.395 55.1383 74.3461 55.1383Z" fill="#23211F"/>
<path d="M98.7025 51.2295C98.3605 51.2295 98.0918 50.9608 98.0673 50.6187C98.0429 50.2767 98.3116 49.9591 98.6537 49.9347L101.903 49.7393C102.269 49.7148 102.562 49.9836 102.587 50.3256C102.611 50.6676 102.343 50.9852 102.001 51.0096L98.7514 51.2051C98.7269 51.2295 98.7025 51.2295 98.7025 51.2295Z" fill="#23211F"/>
<path d="M103.1 66.8402C103.076 66.8402 103.076 66.8402 103.1 66.8402C102.221 66.8402 101.659 66.2294 101.585 66.1562C101.341 65.8874 101.366 65.4966 101.634 65.2523C101.903 65.008 102.294 65.0324 102.538 65.3011C102.538 65.3011 102.782 65.5454 103.1 65.5454C103.344 65.5454 103.589 65.3988 103.857 65.0812C104.444 64.4461 103.467 60.7083 102.196 57.6301C102.074 57.3125 102.221 56.9217 102.538 56.7995C102.856 56.6774 103.247 56.8239 103.369 57.1415C104.053 58.8272 106.178 64.3972 104.786 65.9363C104.273 66.547 103.711 66.8402 103.1 66.8402Z" fill="#F1AC60"/>
<path d="M102.245 70.8223C101.488 70.8223 100.706 70.7001 99.8752 70.4802C97.872 69.9184 95.6489 68.5503 95.5023 68.0861C95.3801 67.7441 95.5756 67.4021 95.8932 67.2799C96.1374 67.2066 96.3818 67.2799 96.5528 67.4509C96.8459 67.6708 101.952 71.4819 105.69 68.306C105.958 68.0861 106.349 68.1105 106.593 68.3793C106.813 68.648 106.789 69.0389 106.52 69.2832C105.323 70.2848 103.857 70.8223 102.245 70.8223Z" fill="#F1AC60"/>
<path d="M94.3541 84.0388L93.6212 88.5828C93.6212 88.5828 87.5138 84.674 81.6994 83.5747C75.8851 82.4753 76.8623 98.0616 76.8623 98.0616L70.7304 93.3466C73.5887 86.6284 75.0789 79.0551 75.421 70.7978C75.4454 70.8467 75.4698 70.8956 75.4942 70.9689C80.8688 83.0372 94.3541 84.0388 94.3541 84.0388Z" fill="#F1AC60"/>
<path d="M70.7549 93.3222L69.7533 92.6382L62.0823 99.332L78.4014 113.599L84.8265 104.194L70.7549 93.3222Z" fill="white"/>
<path d="M95.2092 104.511L93.4258 117.679L88.7352 104.755L95.2092 104.511Z" fill="#D7B085"/>
<path d="M88.7352 104.755L93.1326 113.11C93.1326 113.11 95.1114 106.441 95.2336 104.022C95.3557 101.604 92.2287 97.402 92.2287 97.402L88.7352 104.755Z" fill="white"/>
<path d="M110.38 114.918C110.38 114.918 116.708 121.099 121.985 134.267C127.261 147.434 129.704 156.083 129.704 156.083C129.704 156.083 117.099 163.509 109.379 165.952L110.38 114.918Z" fill="#D7B085"/>
<path d="M40.3396 107.223C40.3396 107.223 33.5725 111.498 27.1718 125.79C20.7712 140.057 19.4276 155.814 19.4276 155.814C19.4276 155.814 45.2744 160.871 48.3526 160.236C51.4307 159.625 54.9975 123.933 54.9975 123.933C54.9975 123.933 56.8297 98.257 40.3396 107.223Z" fill="#D7B085"/>
<path d="M170.624 206.237L156.602 213.591C156.602 213.591 156.602 213.591 156.577 213.591L153.719 215.081L109.379 195.048V165.977C115.095 163.9 121.105 160.944 127.261 157.5L127.652 158.99L134.077 183.933L170.624 206.237Z" fill="#F9C78F"/>
<path d="M156.602 213.591L153.743 215.105L109.403 195.073V165.977C115.12 163.9 121.129 160.944 127.286 157.5L127.677 158.99C127.677 158.99 117.025 165.439 116.488 171.302C115.95 177.166 119.688 192.214 121.349 193.265C122.986 194.315 156.602 213.591 156.602 213.591Z" fill="#F1AC60"/>
<path d="M199.769 211.978C199.769 211.978 202.97 211.612 204.753 213.175C206.536 214.714 210.298 222.068 209.59 222.972C208.882 223.876 205.681 219.063 205.681 219.063C205.681 219.063 206.976 222.678 206.194 223.069C205.413 223.46 203.116 220.26 203.116 220.26C203.116 220.26 203.825 223.094 202.823 223.46C201.821 223.827 200.673 222.141 200.673 222.141C201.259 219.796 200.478 215.863 199.769 211.978Z" fill="#F9C78F"/>
<path d="M168.523 258.786C168.181 259.006 152.229 274.397 152.229 274.397L133.002 272.222L128.409 355.333C124.794 356.114 118.247 356.261 113.19 356.237C109.232 356.212 106.203 356.115 106.203 356.115C103.32 338.354 102.489 275.129 102.489 275.129C77.3509 280.48 45.5676 271.905 38.6784 260.887C31.7892 249.869 36.8461 217.768 36.8461 217.768L63.0106 218.647L91.9844 219.6L109.94 224.315L164.785 242.344C164.859 242.344 168.865 258.542 168.523 258.786Z" fill="#675549"/>
<path d="M107.033 275.227L106.252 289.348C102.978 289.812 99.3134 290.056 95.4291 290.178C67.9943 290.887 28.8088 283.778 28.8088 283.778C28.8088 283.778 25.5107 279.478 25.7062 274.519C25.755 273.126 25.8283 272.027 25.926 271.147C26.1703 268.875 26.4635 268.167 26.4635 268.167C45.2745 264.283 72.7337 267.092 107.033 275.227Z" fill="#EC701E"/>
<path d="M113.214 356.237C109.256 356.212 106.227 356.115 106.227 356.115C103.344 338.354 102.514 275.129 102.514 275.129C77.3754 280.48 45.5921 271.905 38.7029 260.887C31.8136 249.869 36.8706 217.768 36.8706 217.768L63.035 218.647C63.035 218.647 62.7907 219.185 62.3999 220.162C59.6393 226.783 49.4276 253.24 59.053 259.519C70.0708 266.726 102.489 267.165 102.489 267.165H109.183C109.208 267.165 104.468 324.038 113.214 356.237Z" fill="#5A3822"/>
<path d="M133.002 272.198C133.002 272.198 133.979 257.809 130.633 252.898C127.261 247.988 113.19 242.174 108.108 240.61C103.051 239.047 91.8134 235.602 91.8134 235.602C91.8134 235.602 98.5561 235.846 99.3622 235.016C100.168 234.185 102.098 232.817 102.636 233.379C103.173 233.941 101.439 237.41 101.439 237.41L129.9 248.257L148.955 254.217C148.955 254.217 143.507 262.231 144.582 266.897C145.657 271.563 144.338 273.468 144.338 273.468L133.002 272.198Z" fill="#5A3822"/>
<path d="M148.051 289.274C148.051 289.274 133.466 343.802 133.857 344.852C134.248 345.903 148.491 353.207 150.738 352.768C152.986 352.328 157.896 330.317 157.505 325.724C157.115 321.107 150.934 293.403 148.051 289.274Z" fill="#675549"/>
<path d="M102.123 232.548C103.458 232.548 104.541 230.601 104.541 228.2C104.541 225.798 103.458 223.851 102.123 223.851C100.787 223.851 99.7042 225.798 99.7042 228.2C99.7042 230.601 100.787 232.548 102.123 232.548Z" fill="#414040"/>
<path d="M172.505 218.257C172.408 219.014 172.359 219.771 172.359 220.553C172.359 229.104 178.002 236.164 185.258 237.19L182.326 243.102L163.026 244.543C163.026 244.543 160.461 232.964 154.769 232.011C149.101 231.058 134.981 231.229 134.981 231.229L134.517 225.708L134.077 220.553C134.077 220.553 152.057 217.035 157.334 213.2C162.611 209.364 170.551 205.797 175.632 204.698C180.714 203.599 186.113 203.843 186.113 203.843C186.113 203.843 186.113 203.843 186.088 203.868C179.126 204.356 173.458 210.464 172.505 218.257Z" fill="#CCB193"/>
<path d="M185.282 237.214L182.351 243.126L163.051 244.568C163.051 244.568 160.486 232.988 154.794 232.035C149.126 231.082 135.006 231.253 135.006 231.253L134.541 225.732C139.696 225.537 149.761 225.195 153.377 225.317C158.336 225.488 167.229 225.268 167.742 223.998C168.059 223.216 169.818 220.162 172.53 218.306C172.432 219.063 172.383 219.82 172.383 220.602C172.383 229.128 178.002 236.188 185.282 237.214Z" fill="#916F58"/>
<path d="M102.123 223.851C102.123 223.851 124.672 222.703 124.843 222.752C125.014 222.801 130.608 218.941 134.077 220.553C137.546 222.165 137.449 228.957 135.739 231.033C134.028 233.11 128.605 231.351 127.457 230.398C126.309 229.446 102.099 232.573 102.099 232.573V223.851H102.123Z" fill="#414040"/>
<path d="M54.7043 242.906C54.7043 242.906 58.1978 236.848 55.9503 234.478C53.7027 232.108 45.7874 232.426 44.9813 233.428C44.1751 234.429 42.7826 239.095 42.7826 239.095C42.6604 239.608 51.9438 240.732 52.7255 240.879C53.5317 241.025 54.6311 242.051 54.7043 242.906Z" fill="#F68F1E"/>
<path d="M55.9259 234.478C55.9259 234.478 48.9878 229.543 45.3966 227.467C41.8298 225.39 22.5546 214.885 19.4521 215.252C16.3495 215.618 8.7762 226.929 6.91952 230.569C5.06285 234.209 7.45697 238.094 7.92114 238.436C8.38531 238.778 21.04 252.092 30.7631 251.017C40.5106 249.942 42.7337 228.371 55.9259 234.478Z" fill="#FAA240"/>
<path d="M54.7043 242.906C54.7531 243.444 43.4665 269.291 43.0024 270.024C42.9046 270.195 42.7581 270.415 42.5626 270.634C42.2939 270.952 41.903 271.294 41.2434 271.587C40.1196 272.1 38.2874 272.467 35.0871 272.271C28.6376 271.856 13.3201 261.156 9.72886 258.981C6.13766 256.807 2.3266 253.631 1.3494 251.09C1.1051 250.406 1.39825 249.185 1.98457 247.719C3.62137 243.688 7.408 237.972 7.48129 237.849C7.67673 238.167 7.84775 238.387 7.94547 238.436C8.43406 238.802 21.0643 252.092 30.7874 251.017C35.991 250.455 39.0447 244.006 42.7581 239.071C42.7581 239.071 44.175 239.291 45.934 239.584C48.6457 240.024 52.1636 240.659 52.701 240.854C53.6049 241.196 54.631 242.345 54.7043 242.906Z" fill="#F68F1E"/>
<path d="M54.7043 242.906C54.7531 243.444 43.4665 269.291 43.0024 270.024C42.7581 270.39 42.3916 271.074 41.2434 271.587C38.8004 271.88 33.4747 270.83 32.3998 268.973C31.3005 267.141 35.0871 263.257 37.8965 258.566C40.6815 253.875 45.9828 239.584 45.9828 239.584C48.548 234.869 52.2124 240.659 52.7499 240.854C53.605 241.196 54.631 242.345 54.7043 242.906Z" fill="#FAA240"/>
<path d="M42.5383 270.634C42.2696 270.952 41.8787 271.294 41.2191 271.587C40.0953 272.1 38.263 272.467 35.0627 272.271C28.6132 271.856 13.2957 261.156 9.7045 258.981C6.11331 256.807 2.30224 253.631 1.32505 251.09C1.08075 250.406 1.37391 249.185 1.96023 247.719C1.96023 247.719 4.45207 251.946 9.50906 255.097C14.5905 258.248 28.3689 267.801 32.864 267.947C35.136 267.996 39.1425 269.242 42.5383 270.634Z" fill="#FAA240"/>
<path d="M44.4194 239.34C44.4194 239.34 38.9471 247.426 38.2875 248.525C37.6279 249.625 33.3526 257.589 23.6295 253.46C13.9064 249.332 6.25989 239.804 6.25989 239.804L7.50582 237.849C7.70126 238.167 7.87227 238.387 7.96999 238.436C8.45859 238.802 21.0888 252.092 30.8119 251.017C36.0155 250.455 39.0692 244.006 42.7826 239.071L44.4194 239.34Z" fill="#DD7B0E"/>
<path d="M23.4096 216.327L31.7891 200.227L36.7972 202.475L27.978 218.33L23.4096 216.327Z" fill="#693D1F"/>
<path d="M50.5513 240.341C50.5513 240.341 70.4616 214.226 76.1049 204.698C81.7238 195.17 96.6505 168.542 98.8492 163.485C101.023 158.428 110.429 123.322 110.087 114.576C110.087 114.576 112.017 118.705 112.554 125.008C112.554 125.008 109.769 153.835 94.7205 179.78C79.6717 205.724 76.4225 212.125 66.1375 226.905C59.175 236.921 54.7288 242.882 54.7288 242.882L50.5513 240.341Z" fill="#8D5530"/>
<path d="M95.4289 290.178C67.9941 290.887 28.8086 283.778 28.8086 283.778C28.8086 283.778 25.5105 279.478 25.706 274.519C25.7548 273.126 25.8281 272.027 25.9258 271.147C30.2255 272.442 38.2874 274.739 45.0789 276.033C54.8997 277.89 86.3898 279.844 92.4973 282.214C97.2123 284.046 96.1618 288.346 95.4289 290.178Z" fill="#EC701E"/>
<path d="M20.9666 289.494C20.9666 289.494 15.6898 288.004 9.9976 292.328C4.30544 296.652 5.60022 303.273 5.89338 304.152C6.18654 305.032 8.11649 306.009 8.11649 306.009L20.9666 289.494Z" fill="#EC701E"/>
<path d="M79.0121 392.246C78.9144 392.637 78.7922 393.004 78.6945 393.395C70.6082 420.487 48.3281 421.538 36.4796 414.697C24.4601 407.784 16.4227 391.856 15.1523 375.927C13.882 359.999 18.8657 345.512 20.0139 343.093C21.1621 340.675 26.6588 330.879 42.8803 330.903C60.6408 330.903 65.0137 336.107 70.7548 342.703C70.7548 342.703 72.7824 345.414 75.0544 350.154C79.1342 358.753 84.0446 374.095 79.0121 392.246Z" fill="#2D251F"/>
<path d="M48.556 401.479C58.9096 399.184 64.3817 384.147 60.7784 367.892C57.1751 351.637 45.8608 340.32 35.5072 342.615C25.1537 344.911 19.6815 359.948 23.2848 376.203C26.8881 392.458 38.2024 403.775 48.556 401.479Z" fill="#E8E7E6"/>
<path d="M271.226 437.075C271.104 437.539 270.958 437.979 270.836 438.419C261.161 470.178 234.459 471.399 220.266 463.411C205.876 455.3 196.227 436.611 194.712 417.947C193.173 399.282 199.158 382.279 200.526 379.445C201.894 376.611 208.49 365.129 227.937 365.129C249.215 365.154 254.443 371.237 261.332 378.981C261.332 378.981 263.775 382.157 266.487 387.727C271.397 397.792 277.261 415.772 271.226 437.075Z" fill="#2D251F"/>
<path d="M271.226 437.075C271.104 437.539 270.958 437.979 270.836 438.419C258.914 446.065 256.349 430.308 255.665 426.399C254.981 422.491 249.142 394.103 249.142 394.103C249.142 394.103 257.79 395.569 261.332 394.641C264.826 393.737 266.414 387.873 266.463 387.702C271.398 397.792 277.261 415.772 271.226 437.075Z" fill="#4C423C"/>
<path d="M232.153 445.796C242.507 443.501 247.979 428.463 244.375 412.208C240.772 395.953 229.458 384.637 219.104 386.932C208.751 389.227 203.279 404.265 206.882 420.519C210.485 436.774 221.799 448.091 232.153 445.796Z" fill="#E8E7E6"/>
<path d="M44.6593 383.901C48.8349 382.976 51.0435 376.918 49.5923 370.372C48.141 363.825 43.5795 359.268 39.4038 360.194C35.2281 361.119 33.0196 367.177 34.4708 373.724C35.9221 380.27 40.4836 384.827 44.6593 383.901Z" fill="#BFBDBB"/>
<path d="M273.743 374.217C272.985 376 259.744 380.593 249.924 380.08C240.103 379.567 218.311 371.505 211.178 374.168C197.082 379.445 192.562 388.704 189.411 392.833C188.262 394.347 183.523 395.667 177.953 396.741C170.844 398.11 162.44 399.062 158.458 399.478C157.041 399.624 156.186 399.697 156.186 399.697C156.186 399.697 142.334 403.215 124.061 401.066C120.592 400.65 116.976 400.039 113.287 399.16L65.258 384.111C65.258 384.111 61.2515 382.743 60.3232 378.517C60.3232 378.517 55.6082 372.971 55.5105 367.621V367.597C55.5105 367.597 38.1164 365.007 24.5578 360.707C12.3429 356.847 3.79239 356.066 1.15396 349.958C0.98295 349.592 0.860805 349.201 0.738655 348.786C0.738655 348.761 0.71422 348.737 0.71422 348.737C0.616501 348.395 0.543215 348.053 0.469925 347.686C-0.971438 339.478 0.567649 317.882 9.82658 302.98C19.0855 288.077 29.8835 283.484 29.8835 283.484L94.9159 287.222L108.108 287.98L118.124 365.373L127.017 398.158C127.017 398.183 127.041 398.207 127.041 398.207C136.349 395.569 138.645 384.307 146.219 365.715C153.792 347.124 154.965 331.172 155.673 324.258C156.381 317.344 147.636 287.882 147.636 287.882C147.636 287.882 145.07 278.403 143.58 269.462C142.09 260.52 147.22 250.309 156.577 246.449C165.934 242.564 181.52 242.613 181.52 242.613C181.52 242.613 196.08 240.366 203.629 247.67C211.153 254.95 214.745 262.133 216.21 267.581C217.676 273.028 225.274 290.838 227.814 306.986C230.331 323.134 227.277 334.69 227.277 334.69C227.277 334.69 249.435 336.229 259.769 347.466C270.127 358.777 274.5 372.434 273.743 374.217Z" fill="#CCB193"/>
<path d="M144.289 370.724C144.289 370.724 125.307 362.295 120.787 361.074C116.292 359.852 107.668 361.172 102.172 363.004C96.6749 364.836 96.2596 366.277 95.3069 368.281C94.3541 370.284 94.8183 375.097 94.8183 375.097C94.8183 375.097 78.5968 373.924 71.2678 374.144C63.9389 374.364 60.6164 376.294 62.3509 379.103C64.0855 381.913 127.09 398.256 127.09 398.256C127.09 398.256 131.903 397.255 135.738 390.952C139.525 384.673 144.289 370.724 144.289 370.724Z" fill="#414040"/>
<path d="M46.9355 366.18C42.7825 365.398 37.5789 364.323 32.3753 362.979C29.7125 362.295 27.0741 361.562 24.5578 360.781C12.3428 356.896 3.76793 356.139 1.15393 350.032C0.934063 349.421 0.787488 349.006 0.738629 348.859C0.738629 348.834 0.714193 348.81 0.714193 348.81C0.714193 348.761 0.689758 348.297 0.689758 347.466C0.689758 341.97 1.5448 320.862 14.4682 307.743C14.5171 307.695 14.5904 307.621 14.6392 307.572C25.1685 297.068 42.2206 296.335 53.5805 305.936C57.8557 309.527 61.9844 314.682 64.8427 322.035C65.1358 322.768 65.4045 323.501 65.6244 324.234C72.7335 346.049 58.6375 366.717 46.9355 366.18Z" fill="#AE9273"/>
<path d="M77.522 345.414C77.1067 358.435 70.7549 370.211 55.5107 367.67V367.645C55.5107 367.645 52.0172 367.132 46.9358 366.155C58.6377 366.717 72.7337 346.025 65.6491 324.258C65.4048 323.525 65.1605 322.792 64.8673 322.059C56.0481 299.486 29.2729 299.779 29.2729 299.779C40.8771 298.216 52.2126 295.724 65.2826 305.471C69.8754 308.892 72.4161 314.291 74.2972 319.738C77.18 328.069 77.7907 337.45 77.522 345.414Z" fill="#D3BDA4"/>
<path d="M40.8281 354.942C36.7239 354.942 6.62627 345.903 3.57253 343.777C1.00739 341.97 3.49925 329.608 7.26145 321.131C10.0953 314.779 16.1784 310.528 23.092 310.089C30.0545 309.6 36.6018 311.066 42.5382 314.315C57.245 322.426 48.4747 345.634 48.377 345.854C48.035 346.782 44.8346 354.869 40.877 354.942C40.8526 354.942 40.8526 354.942 40.8281 354.942ZM8.48295 321.668C4.37872 330.878 2.88851 341.652 4.32987 342.678C7.16374 344.681 36.9926 353.623 40.8037 353.623C40.8281 353.623 40.8281 353.623 40.8526 353.623C43.4421 353.574 46.3249 347.515 47.131 345.39C47.2288 345.17 55.5838 323.037 41.8786 315.488C36.1864 312.336 30.0057 310.993 23.1653 311.408C16.7403 311.823 11.1214 315.756 8.48295 321.668Z" fill="#94745F"/>
<path d="M77.5219 345.414C77.1066 358.435 70.7548 370.211 55.5106 367.67V367.645C55.5106 367.645 52.0171 367.132 46.9357 366.155C58.6376 366.717 72.7336 346.025 65.649 324.258C69.8021 322.572 72.5138 321.033 74.2972 319.738C77.1799 328.069 77.7906 337.45 77.5219 345.414Z" fill="#94745F"/>
<path d="M121.056 376.147L112.481 374.852C112.481 374.852 91.1292 370.259 87.2204 352.352C84.2888 338.891 88.7595 325.87 90.4452 315.439C91.0071 311.994 91.2514 308.843 90.8361 306.033C89.1504 294.698 74.6146 292.841 52.9209 290.667C31.2271 288.493 18.9633 299.901 16.447 299.071C13.9308 298.24 17.864 292.67 17.864 292.67C22.9942 286.587 29.8591 283.582 29.8591 283.582L108.084 288.077L109.158 296.359L118.1 365.447L121.056 376.147Z" fill="#8E6C55"/>
<path d="M121.056 376.147L112.481 374.852C112.481 374.852 91.1292 370.259 87.2204 352.352C84.2889 338.892 88.7595 325.87 90.4452 315.439C97.7009 304.543 109.183 296.335 109.183 296.335L118.124 365.422L121.056 376.147Z" fill="#83624C"/>
<path d="M229.598 405.219L222.318 410.227L214.183 405.634L203.238 378.077C203.238 378.077 208.539 375.243 210.836 374.29C213.157 373.338 217.041 373.704 217.041 373.704L218.604 377.637L229.598 405.219Z" fill="#FFF2E1"/>
<path d="M222.318 410.227L218.165 415.626L203.238 378.077C203.238 378.077 208.539 375.243 210.836 374.29C213.157 373.338 217.041 373.704 217.041 373.704L218.604 377.637L210.518 376.001L222.318 410.227Z" fill="#BFBDBB"/>
<path d="M227.302 334.738L226.031 334.714C228.425 317.882 225.64 299.462 218.947 280.553C218.947 280.553 209.736 255.634 205.022 250.7C200.282 245.765 194.224 244.421 183.352 244.885C172.481 245.349 156.04 246.742 149.834 255.292C143.629 263.867 147.929 278.257 147.929 278.257C147.929 278.257 157.505 313.778 158.067 318.59C158.629 323.403 158.556 329.608 156.259 340.479C153.963 351.351 142.554 383.745 138.426 391.196C134.297 398.647 127.066 398.256 127.066 398.256C136.374 395.618 138.67 384.356 146.243 365.764C153.816 347.173 154.989 331.221 155.698 324.307C156.406 317.393 147.66 287.931 147.66 287.931C147.66 287.931 145.095 278.452 143.605 269.511C142.115 260.569 147.245 250.358 156.601 246.498C165.958 242.613 181.544 242.662 181.544 242.662C181.544 242.662 196.105 240.415 203.653 247.719C211.178 254.999 214.769 262.182 216.235 267.63C217.701 273.077 225.298 290.887 227.839 307.035C230.355 323.183 227.302 334.738 227.302 334.738Z" fill="#FFF2E1"/>
<path d="M179.615 252.605L182.131 256.514C182.131 256.514 197.815 310.944 200.111 313.46C202.408 315.976 208.271 313.191 208.271 313.191C208.271 313.191 214.281 328.167 213.67 329.852C213.035 331.538 210.079 334.25 210.079 334.25L185.551 349.909L186.308 341.115C186.308 341.115 193.882 314.853 192.733 309.576C191.634 304.274 179.615 252.605 179.615 252.605Z" fill="#AD9274"/>
<path d="M226.227 333.346L226.056 334.714C226.056 334.714 207.904 334.079 198.376 347.637C188.849 361.196 177.953 396.742 177.953 396.742C168.303 398.598 156.186 399.722 156.186 399.722C156.186 399.722 142.334 403.24 124.061 401.09C129.313 398.305 135.689 392.808 136.911 391.391C138.377 389.681 152.57 353.598 152.57 353.598C161.048 337.548 172.09 337.597 182.644 330.341C193.197 323.085 189.142 300.097 189.142 300.097L176.145 245.325L179.614 252.605C179.614 252.605 192.318 302.442 194.541 312.312C196.74 322.108 187.701 345.365 187.578 345.683C207.416 329.462 226.227 333.346 226.227 333.346Z" fill="#8D6B54"/>
<path d="M228.875 431.008C234.026 429.866 236.747 422.384 234.954 414.296C233.162 406.209 227.533 400.578 222.382 401.719C217.232 402.861 214.51 410.343 216.303 418.431C218.096 426.519 223.725 432.15 228.875 431.008Z" fill="#BFBDBB"/>
<path d="M187.114 237.336C195.25 237.336 201.846 229.833 201.846 220.578C201.846 211.322 195.25 203.819 187.114 203.819C178.979 203.819 172.383 211.322 172.383 220.578C172.383 229.833 178.979 237.336 187.114 237.336Z" fill="#E8E7E6"/>
<path d="M189.215 236.042C195.422 236.042 200.453 229.118 200.453 220.577C200.453 212.037 195.422 205.113 189.215 205.113C183.009 205.113 177.977 212.037 177.977 220.577C177.977 229.118 183.009 236.042 189.215 236.042Z" fill="#FFA13A"/>
<path d="M201.626 223.509C201.626 223.509 211.471 223.24 216.015 223.509C221.78 223.876 228.401 224.853 228.572 225.146C228.743 225.463 228.67 227.564 228.157 227.613C227.644 227.662 225.86 227.076 224.932 226.807C224.004 226.538 213.059 225.732 210.469 225.781C207.88 225.83 201.064 226.025 201.064 226.025L201.626 223.509Z" fill="#FFF2E1"/>
<path d="M213.695 329.861C217.495 328.769 219.49 324.11 218.153 319.454C216.815 314.799 212.65 311.91 208.851 313.002C205.051 314.094 203.056 318.753 204.394 323.408C205.731 328.064 209.896 330.952 213.695 329.861Z" fill="#FFF2E1"/>
<path d="M214.37 328.253C217.586 327.329 219.275 323.384 218.142 319.442C217.009 315.5 213.484 313.053 210.268 313.977C207.052 314.902 205.363 318.846 206.496 322.789C207.629 326.731 211.154 329.177 214.37 328.253Z" fill="#414040"/>
<path d="M249.924 380.08C240.103 379.567 218.311 371.505 211.178 374.168C197.082 379.445 192.562 388.704 189.411 392.833C188.263 394.347 183.523 395.667 177.953 396.742C177.953 396.742 188.849 361.172 198.377 347.637C229.964 333.126 249.924 380.08 249.924 380.08Z" fill="#AD9172"/>
<path d="M221.438 184.128C221.17 185.35 220.779 186.473 220.29 187.524C218.238 191.872 214.354 194.511 210.64 193.729C206.047 192.727 203.409 186.84 204.777 180.537C205.412 177.605 206.78 175.113 208.539 173.403C210.567 171.4 213.083 170.423 215.551 170.96C218.946 171.693 221.292 175.113 221.707 179.389C221.878 180.879 221.805 182.491 221.438 184.128Z" fill="#414040"/>
<path d="M220.29 187.793C218.238 192.141 214.354 194.78 210.64 193.998C206.047 192.996 203.409 187.109 204.777 180.806L207.293 178.973C207.293 178.973 208.295 192.947 220.29 187.793Z" fill="#232120"/>
<path d="M126.211 185.765C126.211 188.672 125.233 191.31 123.67 193.289C121.886 195.512 119.321 196.905 116.487 196.905C111.113 196.905 106.74 191.921 106.74 185.765C106.74 182.687 107.815 179.926 109.574 177.898C111.333 175.871 113.776 174.625 116.463 174.625C121.838 174.625 126.211 179.609 126.211 185.765Z" fill="#414040"/>
<path d="M123.67 193.558C121.886 195.781 119.321 197.174 116.487 197.174C111.113 197.174 106.74 192.19 106.74 186.034C106.74 182.955 107.815 180.195 109.574 178.167C109.574 178.167 107.619 186.131 110.258 188.501C112.579 190.578 120.641 190.993 123.67 193.558Z" fill="#232120"/>
<path d="M197.057 208.192C197.057 208.192 214.207 183.517 214.964 183.908C215.722 184.299 198.376 209.755 198.376 209.755L197.057 208.192Z" fill="#C4C3C2"/>
<path d="M145.706 217.475C145.706 217.475 117.147 187.109 117.538 186.107C117.929 185.105 147.709 216.889 147.709 216.889L145.706 217.475Z" fill="#414040"/>
<path d="M121.422 251.506H67.3834V274.91C78.5235 277.108 91.1781 277.524 102.514 275.105C102.514 275.105 103.344 338.33 106.227 356.09C106.227 356.09 109.256 356.212 113.214 356.212C118.271 356.237 124.818 356.09 128.434 355.308L131.634 297.385H121.447V251.506H121.422Z" fill="#675549"/>
<path d="M109.207 267.165H102.514C102.514 267.165 81.3329 266.872 67.3834 262.939V274.91C78.5235 277.108 91.1781 277.524 102.514 275.105C102.514 275.105 103.344 338.33 106.227 356.09C106.227 356.09 109.256 356.212 113.214 356.212C104.468 324.038 109.207 267.165 109.207 267.165Z" fill="#5A3822"/>
<path d="M110.331 356.237L109.818 372.189C109.818 372.189 116.976 379.054 117.172 378.956C117.367 378.883 121.227 378.761 121.447 378.566C121.667 378.346 126.797 372.312 126.797 372.312V371.334C126.797 371.334 123.694 368.403 123.328 365.227C122.961 362.051 122.961 356.017 122.961 356.017C118.76 356.212 114.558 356.286 110.331 356.237Z" fill="#F9C78F"/>
<path d="M150.738 352.768C150.518 353.867 149.565 356.725 148.32 360.146C145.461 368.012 141.137 378.957 141.137 378.957L132 376.587C132 376.587 131.561 372.312 132.44 367.45C132.831 365.252 134.248 361.098 135.689 357.214C137.424 352.499 139.183 348.151 139.183 348.151L150.738 352.768Z" fill="#502D16"/>
<path d="M150.738 352.768L148.32 360.145C145.901 360.292 144.24 363.126 144.167 363.297C144.093 363.492 143.702 363.761 140.966 362.1C139.183 361.025 136.984 358.68 135.689 357.189C137.424 352.475 139.183 348.126 139.183 348.126L150.738 352.768Z" fill="#F9C78F"/>
<path d="M141.308 378.468C141.308 378.468 140.136 382.303 138.181 386.188C137.717 387.116 137.277 387.996 136.862 388.826C135.494 391.489 134.37 393.517 133.417 394.176C132.147 395.056 109.183 389.339 108.792 388.973C108.597 388.777 108.157 386.359 107.937 383.525C107.742 380.911 107.742 377.979 108.328 376.147C109.549 372.336 110.087 371.31 110.087 371.31C110.087 371.31 114.606 373.362 116.097 374.999C117 375.976 119.053 376.513 120.592 376.782C121.593 376.953 122.595 376.44 122.986 375.512C123.743 373.777 125.16 371.188 126.797 371.31C129.24 371.481 141.308 378.468 141.308 378.468Z" fill="#8D5530"/>
<path d="M136.862 388.826C135.494 391.489 134.37 393.517 133.417 394.176C132.147 395.056 109.183 389.339 108.792 388.973C108.596 388.777 108.157 386.359 107.937 383.525C111.235 384.185 118.857 385.821 124.574 387.629C128.434 388.875 133.173 388.997 136.862 388.826Z" fill="#502D16"/>
<path d="M277.92 15.9772V264.454C277.92 267.019 270.396 267.019 270.396 264.454V15.9772C270.396 13.9006 272.082 12.215 274.158 12.215C276.235 12.215 277.92 13.9006 277.92 15.9772Z" fill="#414040"/>
<path d="M270.396 42.2881C270.396 42.2881 254.565 22.4022 221.756 12.215C188.947 2.02769 171.162 5.9609 171.162 5.9609L175.999 9.4788C175.999 9.4788 194.224 7.13354 223.71 16.9299C256.447 27.8257 267.929 43.1921 270.396 57.4591V42.2881Z" fill="#2F2620"/>
<path d="M188.385 15C188.385 15.1465 188.36 15.2687 188.336 15.3908C187.969 17.443 184.329 19.1286 184.329 19.1286H152.18C152.18 19.1286 148.564 17.2231 148.491 15C148.393 12.7768 164.614 6.2052 164.614 6.2052H172.285C172.261 6.2052 188.482 12.7768 188.385 15Z" fill="#675549"/>
<path d="M188.336 15.4153C187.97 17.4674 184.329 19.153 184.329 19.153H152.18C152.18 19.153 148.564 17.2475 148.491 15.0244C148.466 15 167.742 9.62538 188.336 15.4153Z" fill="#5A3822"/>
<path d="M184.329 19.153C184.329 16.539 152.18 16.539 152.18 19.153C152.18 19.153 153.768 35.6188 166.496 37.8419C179.224 40.065 184.329 19.153 184.329 19.153Z" fill="#FFA13A"/>
<path d="M168.792 8.79476C171.22 8.79476 173.189 6.82599 173.189 4.39738C173.189 1.96878 171.22 0 168.792 0C166.363 0 164.394 1.96878 164.394 4.39738C164.394 6.82599 166.363 8.79476 168.792 8.79476Z" fill="#675549"/>
<path d="M274.158 232.573C268.759 232.573 264.411 236.946 264.411 242.32V324.478C264.411 331.147 283.93 331.147 283.93 324.478V242.32C283.93 236.946 279.557 232.573 274.158 232.573Z" fill="#7E4F30"/>
<path d="M127.31 228.542C126.088 229.104 123.621 224.804 123.45 224.511C123.548 224.779 124.769 228.346 123.132 229.152C121.422 229.983 119.957 225.463 119.957 225.463C119.957 225.463 120.103 229.739 118.711 229.714C117.318 229.69 116.39 227.296 116.39 227.296C116.61 228.59 116.219 230.325 114.729 230.105C113.238 229.885 112.53 225.854 111.553 224.877C110.575 223.9 106.105 223.436 103.784 223.851C103.491 223.9 103.051 223.876 102.489 223.778C98.4582 223.143 88.3443 219.454 88.3443 219.454C88.3443 219.454 28.5643 201.082 23.4584 196.661C18.3282 192.214 22.5057 156.4 22.5057 156.4L45.934 160.211L45.5919 162.214L41.9763 182.736C41.9763 182.736 93.9631 211.441 97.2367 213.053C100.51 214.665 108.743 215.105 110.429 215.105C112.139 215.105 120.25 215.398 122.277 216.522C124.305 217.621 127.359 223.143 127.554 224.022C127.774 224.902 128.58 227.955 127.31 228.542Z" fill="#F9C78F"/>
<path d="M102.514 223.778C98.4826 223.143 88.3686 219.454 88.3686 219.454C88.3686 219.454 28.5887 201.082 23.4829 196.661C18.3526 192.214 22.5301 156.4 22.5301 156.4L45.9584 160.211L45.6163 162.214C45.6163 162.214 28.1001 159.503 26.1457 166.27C24.1913 173.012 24.9487 189.258 27.7825 191.848C30.6164 194.462 41.8541 201.107 48.6701 204.087C55.1196 206.921 97.2367 220.749 102.514 223.778Z" fill="#F1AC60"/>
<path d="M135.176 228.664C135.787 228.395 136.129 227.662 135.836 227.051C135.616 226.563 135.079 226.172 133.784 226.465C131.219 227.051 115.388 229.641 115.388 229.641C115.388 229.641 111.259 230.032 110.356 232.084C109.452 234.136 110.453 235.333 111.944 235.358C113.458 235.382 113.605 233.086 113.605 233.086L131.121 229.763C131.121 229.739 133.784 229.299 135.176 228.664Z" fill="#FFF2E1"/>
</svg>
